<svg xmlns="http://www.w3.org/2000/svg" viewBox="231.836 160.801 93.246 19.04" width="93.246" height="19.04"><path fill="#0096D6" d="M261.695 161.223h-1.967c-.338 0-1.362.33-2.353 1.758-1.002 1.443-5.329 8.609-6.158 9.932-.832 1.337-.546 1.976.329 1.976h1.939c.948 0 1.706-1.091 2.125-1.752.407-.665 5.578-8.977 6.323-10.205.744-1.219.27-1.709-.238-1.709M248.21 167.667c.331-.02 3.066-.271 4.634-3.543 1.606-3.347-1.284-3.083-1.817-3.144-2.414-.249-6.957-.236-10.409.025-.762 0-1.552.959-1.968 1.552-.395.598-5.676 9.185-6.472 10.481-.798 1.27-.068 1.762.844 1.824 2.394.136 5.522.149 9.168 0 3.243-.148 5.48-.191 8.041-4.966 1.129-2.115-2.021-2.229-2.021-2.229m-3.233 2.711c-.888 1.851-2.575 1.904-3.469 1.904h-2.563c-.331 0-.69 0-.288-.641.411-.642 1.03-1.649 1.322-2.08.281-.441.522-.53 1.029-.53h2.787c.542 0 1.857-.058 1.182 1.347m2.46-5.538c-.888 1.851-2.684 1.901-3.591 1.901h-1.456c-.337 0-.697 0-.281-.631.405-.654.985-1.661 1.259-2.097.293-.431.541-.548 1.043-.548h1.851c.556 0 1.851-.023 1.175 1.375M281.828 168.025h-2.635l.051.03c-.971 0-1.339.694-1.512.983-.172.275-.332.437-.558.858-.22.431-.159.935.145.935h2.774c.743 0 1.238-.23 1.486-.654.249-.402.368-.606.74-1.204.363-.609-.098-.948-.491-.948M305.434 172.122l2.936-4.732c.365-.588.434-1.49.168-2.018 0 0-.439-.834-4.986-.834-4.506 0-6.276.722-6.276.722-.533.208-1.124.64-1.313.959-.206.317.065.563.59.563h6.7c.525 0 .725.436.388.91-.543.814-1.504.906-1.504.906h-3.235c-1.624 0-2.133.081-3.604.132-.527 0-1.252.481-1.626 1.075l-1.376 2.317c-1.671 2.657 1.978 2.856 4.8 2.856 4.547 0 6.738-1.242 6.738-1.242.517-.295 1.234-1.02 1.6-1.614m-3.951-.443-.056.083c-.418.68-1.26 1.235-1.861 1.235l-1.324.078-1.182-.078c-.603 0-.748-.555-.327-1.235l.048-.083c.429-.692 1.268-1.245 1.864-1.245h2.513c.609 0 .748.553.325 1.245M295.115 165.968c.155-1.043-2.13-1.319-2.86-1.319-3.066 0-4.772.195-6.54 2.762a303.737 303.737 0 0 0-3.494 5.736c-.809 1.389-.082 1.75.337 1.75h1.854c.727 0 1.29-.059 2.333-1.75l3.311-5.366c.37-.596 1.119-1.09 1.649-1.09h2.064c.286 0 1.26-.031 1.346-.723M276.616 166.417c.997-1.643.163-1.862-.525-1.862h-1.623c-.981 0-1.957 1.253-2.325 1.862-1.498 2.465-3.205 5.249-3.205 5.249-.37.601-1.098 1.085-1.62 1.085h-2.372c-.524 0-.659-.484-.286-1.085l3.243-5.275c1.174-1.836-.22-1.755-1.197-1.755-1.541 0-1.732.102-1.732.102-.51.312-.933.621-1.607 1.653l-3.538 5.762c-1.701 2.866 1.993 2.845 4.785 2.845 2.904 0 5.818-.012 7.009-1.364 0 0-.436 1.293.365 1.293h1.273c.746 0 1.238-.238 1.492-.654.256-.401.352-.639.725-1.235.375-.606-.107-.956-.502-.956h-.956c-.35 0-.685-.269-.34-.865l2.936-4.8ZM323.433 164.794c-1.506 0-1.77.142-1.77.142-.514.289-1.238 1.011-1.61 1.608l-3.17 5.116c-.373.589-1.101 1.076-1.623 1.076h-2.175c-.526 0-.65-.487-.289-1.076l3.177-5.116c1.293-2.044-.234-1.75-1.205-1.75-1.526 0-1.732.116-1.732.116-.512.302-1.245 1.037-1.605 1.634l-3.459 5.588c-1.714 2.879 2.001 2.851 4.773 2.851.799 0 1.516-.021 2.168-.097l-1.007 1.639c-.378.588-1.106 1.075-1.62 1.075l-1.187-.021-5.262-.009c-.728 0-1.313.309-1.39.793-.061.495.236.839.467.987.238.139.122.469 4.283.481.19 0 .385.01.573.01 4.537 0 6.74-1.234 6.74-1.234.533-.297 1.253-1.028 1.621-1.616l3.464-5.588c.119-.194.205-.353.279-.493l2.699-4.366c1.347-2.07-.312-1.75-1.14-1.75"/></svg>
