<svg xmlns="http://www.w3.org/2000/svg" version="1.0" width="744.094" height="347.244"><g style="fill:#213bb2;fill-opacity:1"><path d="M461.653 313.828s-38.314 45.478-45.477 54.057c-38.231 46.06-45.061 58.388-46.144 61.637.166-3.249-1.25-15.743-17.575-62.303-4.331-12.41-18.324-53.39-18.324-53.39H73.51l-9.162 38.647 68.466.083h16.075c44.062 0 70.882 17.658 63.47 49.143-8.163 34.233-46.645 49.142-87.541 49.142h-15.326l19.907-84.042H60.934L31.78 489.492h97.203c72.964 0 142.43-38.564 154.59-87.79 2.25-9.079 2-31.651-3.581-45.145-.084-.5-.25-.916-.75-1.999-.25-.416-.416-2.415.75-2.832.666-.25 1.832 1 1.999 1.333.5 1.5 1 2.665 1 2.665l61.802 174.415 157.34-177.58h82.709c43.978 0 71.132 17.658 63.635 49.143-8.162 34.233-46.81 49.142-87.707 49.142h-15.409l19.99-84.042h-68.466l-29.152 122.69h97.119c73.047 0 142.93-38.398 154.674-87.79 11.744-49.393-39.564-87.874-112.945-87.874H461.653M347.21 530.888c-184.826 0-334.67 21.24-334.67 47.477 0 26.154 149.844 47.393 334.67 47.393 184.826 0 334.669-21.24 334.669-47.393 0-26.237-149.843-47.477-334.67-47.477zm-12.078 64.219c-42.229 0-76.462-7.08-76.462-15.826 0-8.745 34.233-15.825 76.462-15.825 42.146 0 76.38 7.08 76.38 15.825 0 8.746-34.234 15.826-76.38 15.826" style="fill:#213bb2;fill-opacity:1;fill-rule:nonzero;stroke:none" transform="translate(5.176 -296.171)"/></g></svg>
