<svg viewBox="0 0 458.62 229.45" xmlns="http://www.w3.org/2000/svg"><path d="M4.073 225.38h450.47V4.08H4.073z" fill="none" stroke="#000" stroke-width="8.147"/><path d="M122.82 47.875c1.927-9.427-.364-21.25-.937-24.427l26.042.107-36.875 157.24c-2.76 7.292.156 15.26 2.813 25.677H70.165L23.289 23.402l43.438.05 32.603 126.67 23.49-102.24M284.54 206.47V23.61l-39.792-.156v113.91c-.107 2.448-.05 2.396-2.656 2.396l-36.927.05c-2.5-.05-2.656-.156-2.709-2.448V23.452h-42.292v122.34l-8.125 10.99h8.125v49.688h42.292v-47.5c.107-1.98.47-2.188 2.709-2.136 0 0 8.75-.05 14.375-.05 2.969.05 7.135-.833 9.583-1.77 3.698-1.407 9.896-4.167 13.021-5.625 1.146-.521 2.604-.47 2.604 1.301v55.781h39.792M303.97 190.17c19.167 0 48.177-.156 60.886-.156 12.187 0 28.021-5.313 28.021-25.469 0-11.562-9.167-20.833-24.167-25.365l-31.979-9.74c-22.083-6.666-38.385-22.292-38.385-49.167 0-39.063 38.646-56.51 69.948-56.458 16.719.05 42.708-.05 64.583 0l-6.823 15.938H379.7c-21.458 0-40.469 8.49-40.156 30.417.208 14.063 6.458 21.771 26.406 26.98l25.156 7.03c24.167 6.459 39.687 24.428 39.687 48.543 0 38.854-36.458 53.542-62.031 53.542h-58.75l-6.042-16.094"/></svg>
